<svg width="2758" height="747" viewBox="0 0 2758 747" fill="none" xmlns="http://www.w3.org/2000/svg">
<path fill-rule="evenodd" clip-rule="evenodd" d="M844.22 562.774V648.236H1352.33V50H1182.96V220.925H844.22V306.387H759.536V562.774H844.22ZM1182.96 562.774H928.904V306.387H1182.96V562.774ZM1521.7 648.236V562.774H1437.02V220.925H1606.38V562.774H1860.44V220.925H2029.8V648.236H1521.7ZM2114.49 648.236V562.774H2199.18V477.311H2283.86V391.849H2199.18V306.387H2114.49V220.925H2283.86V306.387H2368.55V391.849H2453.23V306.387H2537.91V220.925H2707.28V306.387H2622.6V391.849H2537.91V477.311H2622.6V562.774H2707.28V648.236H2537.91V562.774H2453.23V477.311H2368.55V562.774H2283.86V648.236H2114.49ZM620.411 567.895C581.269 621.374 526.081 661.181 462.755 681.61C399.422 702.037 331.205 702.037 267.878 681.61C204.552 661.181 149.357 621.374 110.222 567.895C71.0793 514.414 50 450.006 50 383.899C50 317.793 71.0793 253.385 110.222 199.904C149.357 146.424 204.552 106.618 267.878 86.1891C331.205 65.7619 399.422 65.7619 462.755 86.1891C526.081 106.618 581.269 146.424 620.411 199.904L365.313 383.899L620.411 567.895ZM466.688 194.846C466.688 218.422 447.436 237.533 423.694 237.533C399.945 237.533 380.693 218.422 380.693 194.846C380.693 171.272 399.945 152.161 423.694 152.161C447.436 152.161 466.688 171.272 466.688 194.846Z" fill="#0A0909"/>
<path fill-rule="evenodd" clip-rule="evenodd" d="M844.22 698.236C816.606 698.236 794.22 675.851 794.22 648.236V612.774H759.536C731.922 612.774 709.536 590.389 709.536 562.774V306.387C709.536 278.773 731.922 256.387 759.536 256.387H794.22V220.925C794.22 193.311 816.606 170.925 844.22 170.925H1132.96V50C1132.96 22.3858 1155.34 0 1182.96 0H1352.33C1379.95 0 1402.33 22.3858 1402.33 50V184.911C1411.32 176.251 1423.55 170.925 1437.02 170.925H1606.38C1634 170.925 1656.38 193.311 1656.38 220.925V512.774H1810.44V220.925C1810.44 193.311 1832.82 170.925 1860.44 170.925H2029.8C2047.64 170.925 2063.3 180.265 2072.15 194.321C2081 180.265 2096.65 170.925 2114.49 170.925H2283.86C2311.48 170.925 2333.86 193.311 2333.86 220.925V256.387H2368.55C2386.38 256.387 2402.04 265.727 2410.89 279.783C2419.74 265.727 2435.39 256.387 2453.23 256.387H2487.91V220.925C2487.91 193.311 2510.3 170.925 2537.91 170.925H2707.28C2734.9 170.925 2757.28 193.311 2757.28 220.925V306.387C2757.28 334.001 2734.9 356.387 2707.28 356.387H2672.6V391.849C2672.6 409.95 2662.98 425.804 2648.58 434.58C2662.98 443.356 2672.6 459.21 2672.6 477.311V512.774H2707.28C2734.9 512.774 2757.28 535.16 2757.28 562.774V648.236C2757.28 675.851 2734.9 698.236 2707.28 698.236H2537.91C2510.3 698.236 2487.91 675.851 2487.91 648.236V612.774H2453.23C2435.39 612.774 2419.74 603.435 2410.89 589.379C2402.04 603.435 2386.38 612.774 2368.55 612.774H2333.86V648.236C2333.86 675.851 2311.48 698.236 2283.86 698.236H2114.49C2096.65 698.236 2081 688.897 2072.15 674.841C2063.3 688.897 2047.64 698.236 2029.8 698.236H1521.7C1494.08 698.236 1471.7 675.851 1471.7 648.236V612.774H1437.02C1423.55 612.774 1411.32 607.449 1402.33 598.789V648.236C1402.33 675.851 1379.95 698.236 1352.33 698.236H844.22ZM2079.8 526.76C2088.79 518.1 2101.02 512.774 2114.49 512.774H2149.18V477.311C2149.18 459.21 2158.8 443.356 2173.2 434.58C2158.8 425.804 2149.18 409.95 2149.18 391.849V356.387H2114.49C2101.02 356.387 2088.79 351.062 2079.8 342.402V526.76ZM1182.96 220.925H844.22V306.387H759.536V562.774H844.22V648.236H1352.33V50H1182.96V220.925ZM1437.02 220.925H1606.38V562.774H1860.44V220.925H2029.8V648.236H1521.7V562.774H1437.02V220.925ZM2537.91 648.236V562.774H2453.23V477.311H2368.55V562.774H2283.86V648.236H2114.49V562.774H2199.18V477.311H2283.86V391.849H2199.18V306.387H2114.49V220.925H2283.86V306.387H2368.55V391.849H2453.23V306.387H2537.91V220.925H2707.28V306.387H2622.6V391.849H2537.91V477.311H2622.6V562.774H2707.28V648.236H2537.91ZM478.106 729.195L478.103 729.196C404.792 752.841 325.835 752.842 252.529 729.195L252.527 729.195C179.221 705.546 115.259 659.444 69.8717 597.422C24.4757 535.396 0 460.651 0 383.899C0 307.147 24.4758 232.403 69.8717 170.376C69.8724 170.375 69.8731 170.374 69.8737 170.373C115.261 108.353 179.222 62.2521 252.527 38.6039L252.529 38.6035C325.835 14.9569 404.792 14.9574 478.103 38.603L478.106 38.6039C551.415 62.2532 615.368 108.356 660.759 170.373C668.627 181.122 671.88 194.567 669.796 207.724C667.712 220.882 660.465 232.663 649.661 240.456L450.786 383.899L649.661 527.343C660.465 535.135 667.712 546.917 669.796 560.074C671.88 573.232 668.627 586.676 660.759 597.426C615.368 659.443 551.415 705.545 478.106 729.195ZM365.313 383.899L620.411 199.904C620.411 199.903 620.41 199.902 620.41 199.901C610.471 186.323 599.499 173.627 587.622 161.905C552.719 127.459 510.002 101.431 462.755 86.1891C399.422 65.7619 331.205 65.7619 267.878 86.1891C204.552 106.618 149.357 146.424 110.222 199.904C71.0793 253.385 50 317.793 50 383.899C50 450.006 71.0793 514.414 110.222 567.895C149.357 621.374 204.552 661.181 267.878 681.61C331.205 702.037 399.422 702.037 462.755 681.61C510.002 666.368 552.719 640.339 587.622 605.894C599.5 594.171 610.473 581.474 620.411 567.895L365.313 383.899ZM1182.96 562.774H928.904V306.387H1182.96V562.774ZM1132.96 356.387H978.904V512.774H1132.96V356.387ZM423.694 187.533C420.163 187.533 416.688 190.468 416.688 194.846C416.688 199.228 420.165 202.161 423.694 202.161C427.211 202.161 430.693 199.233 430.693 194.846C430.693 190.463 427.213 187.533 423.694 187.533ZM423.694 237.533C447.436 237.533 466.688 218.422 466.688 194.846C466.688 171.272 447.436 152.161 423.694 152.161C399.945 152.161 380.693 171.272 380.693 194.846C380.693 218.422 399.945 237.533 423.694 237.533Z" fill="white"/>
</svg>
